<svg xmlns="http://www.w3.org/2000/svg" xmlns:xlink="http://www.w3.org/1999/xlink" version="1.1" x="0px" y="0px" viewBox="0 0 100 125" enable-background="new 0 0 100 100" xml:space="preserve">
<path d="M44.909,57.757c0.553,1.86-1.759,4.133-5.166,5.074c-3.406,0.941-6.617,0.196-7.171-1.665  c-0.554-1.862,1.759-4.134,5.166-5.075S44.354,55.896,44.909,57.757" fill="param(fill)" fill-opacity="param(fill-opacity)" stroke="param(outline)" stroke-opacity="param(outline-opacity)" stroke-width="param(outline-width)"/>
<path d="M48.173,12.331c2.2-3.198,0.826-7.768-3.438-9.617c1.354-0.107,2.743,0.071,4.07,0.499c3.926,1.266,5.639,4.606,3.932,7.284  c-1.043,1.629-3.897,3.103-6.087,3.425C47.244,13.454,47.761,12.924,48.173,12.331z"/ fill="param(fill)" fill-opacity="param(fill-opacity)" stroke="param(outline)" stroke-opacity="param(outline-opacity)" stroke-width="param(outline-width)"/>
<path d="M78.852,48.427c-0.482,0-0.964-0.185-1.328-0.553c-0.72-0.728-0.71-1.897,0.023-2.614c0.091-0.088,9.235-9.242,6.056-20.296  c-0.822-2.861-3.702-6.124-6.136-8.441c-0.354,3.344-1.583,7.939-5.413,10.961c-6.417,5.061-18.479,5.999-18.922,6.014l-0.896-3.5  c3.033-1.513,12.396-7.128,12.032-12.44c-0.18-2.624-2.206-5.506-4.174-7.677c-0.309,3.168-1.486,7.176-5.18,9.469  c-3.33,2.066-6.567,1.625-9.424,1.234c-2.764-0.375-5.375-0.733-8.327,0.916c-2.537,1.417-3.958,3.137-4.222,5.108  c-0.557,4.153,4.207,8.221,4.252,8.264c0.732,0.716,0.743,1.886,0.022,2.614c-0.721,0.727-1.899,0.738-2.631,0.021  c-0.237-0.23-6.14-5.356-5.332-11.386c0.427-3.186,2.474-5.824,6.086-7.842c4.042-2.258,7.557-1.778,10.658-1.356  c2.659,0.362,4.76,0.649,6.945-0.708c4.557-2.829,3.403-10.355,3.392-10.432l-0.759-4.71l3.755,2.973  c0.334,0.265,8.191,6.559,8.651,13.26c0.293,4.281-2.652,8.377-6.364,11.011c2.528-0.698,6.05-2.093,8.124-3.729  c4.899-3.866,4.089-11.792,4.08-11.872l-0.476-4.312l3.46,2.647c0.35,0.268,8.569,6.613,10.376,12.895  c3.795,13.195-6.582,23.517-7.026,23.951C79.793,48.25,79.321,48.427,78.852,48.427z" fill="param(fill)" fill-opacity="param(fill-opacity)" stroke="param(outline)" stroke-opacity="param(outline-opacity)" stroke-width="param(outline-width)"/>
<path d="M69.659,55.405l7.729-14.123l-12.983-7.012l-4.8,8.25c-1.399-0.313-2.912-0.539-4.506-0.687l3.07,12.635l-2.121,1.363   l-6.983-27.939l-8.874,2.168l3.173,12.053c-1.999,0.254-4.052,0.611-6.136,1.07L19.654,29.538l-8.672,10.369l10.953,8.504   C10.569,53.891,3.66,61.593,5.524,67.86c0.063,0.211,3.24,10.888,3.24,10.888c1.953,4.609,8.645,7.239,17.484,7.514L69.659,55.405z    M35.533,51.085c3.499-0.967,6.894-1.384,9.85-1.308l3.503,13.308c-2.401,1.473-5.368,2.761-8.687,3.68   c-9.461,2.613-18.168,1.222-19.457-3.109C19.454,59.326,26.076,53.697,35.533,51.085z" fill="param(fill)" fill-opacity="param(fill-opacity)" stroke="param(outline)" stroke-opacity="param(outline-opacity)" stroke-width="param(outline-width)"/>
<polygon points="97.694,52.378 91.081,43.801 25.196,90.537 32.021,99.389 54.255,83.473 57.93,97.436 66.804,95.267    62.828,80.162 80.153,93.616 88.826,83.246 79.365,75.9 89.213,78.005 92.176,64.998 82.851,63.005  "/>
</svg>
