<svg xmlns="http://www.w3.org/2000/svg" xmlns:xlink="http://www.w3.org/1999/xlink" version="1.1" x="0px" y="0px" viewBox="0 0 50 62.5" enable-background="new 0 0 50 50" xml:space="preserve">
<path d="M38.78441,33.50843c-1.55-1.85-3.69-3.04-6-3.3299c-8.15371-1.3603-14.34331,8.7286-8.46,15.5199   c1.8,2.0999,4.41,3.3,7.17,3.3C39.50441,48.99843,43.84441,39.64843,38.78441,33.50843z M34.69441,43.18853   c-0.6,0.6599-1.23,0.5798-1.84,0.6999c-0.23,0.3999-0.52,1.6699-1.94,1.6699c-1.43,0-1.79-1.4799-1.95-1.6899   c-0.54-0.0701-1.15-0.0601-1.69-0.55c-1.64-1.48,0.44-3.06,0.49-3.16c-0.07-0.51-0.44-1.3601,0.27-2.19   c1.03-1.22,2.31-0.39,2.9-0.09c0.92-0.46,1.95-1.05,2.86,0.09c0.73,0.85,0.3,1.78,0.28,2.2   C34.17441,40.28833,36.07441,41.63843,34.69441,43.18853z" fill="param(fill)" fill-opacity="param(fill-opacity)" stroke="param(outline)" stroke-opacity="param(outline-opacity)" stroke-width="param(outline-width)"/>
<path d="M32.16441,39.47843c-0.02,0.01-0.03,0.02-0.05,0.02c-1.59171,0.9332-2.14511,0.0061-2.44-0.02   c0.21389,0.9844,0.10779,1.577-0.65,2.25c-0.03,0.03-0.07,0.0699-0.13,0.12c1.83429,0.1912,1.795,1.254,2.02,1.4599   c0.747-1.6902,1.73449-1.2945,2.03-1.4599c-0.02-0.01-0.03-0.02-0.05-0.0401C31.5287,40.59893,32.2215,39.78183,32.16441,39.47843z   " fill="param(fill)" fill-opacity="param(fill-opacity)" stroke="param(outline)" stroke-opacity="param(outline-opacity)" stroke-width="param(outline-width)"/>
<path d="M39.38441,23.12843c0-0.01,0.01-0.02,0.01-0.03c-0.02,0.01-0.03,0.02-0.04,0.02c-1.50291,0.9014-2.16351,0.0516-2.44-0.01   c0.016,0.1004,0.086,0.5404,0.07,0.4399c0.15959,1.2778-0.70711,1.7318-0.85,1.9301c0.20629,0.1161,1.32649-0.2005,2.01,1.47   c0.01-0.0099,0.01-0.0199,0.01-0.0199c0.75509-1.7091,1.74559-1.3067,2-1.4501   C40.01841,25.18293,38.9978,24.90713,39.38441,23.12843z" fill="param(fill)" fill-opacity="param(fill-opacity)" stroke="param(outline)" stroke-opacity="param(outline-opacity)" stroke-width="param(outline-width)"/>
<path d="M41.84441,18.36843c-1.66-1.26-3.63-1.92-5.7-1.92c-3.53,0-6.74,1.94-8.36,5.04c-0.12,0.2001-0.22,0.4-0.29,0.58   c-0.94,2.1201-1.08,4.59-0.31,6.8601c5.09249-2.1442,11.32209-0.1814,14.22,4.8598c2.01-1.3299,3.45-3.4099,3.98-5.8899   C46.17441,24.24843,44.81441,20.59843,41.84441,18.36843z M40.81441,27.39843l-0.73,0.11c-0.26,0.5099-0.58,1.6701-1.94,1.6701   c-1.46,0-1.78-1.4301-1.94-1.6701c-0.29-0.1-1.74,0.06-2.2-1.3299c-0.44-1.4002,0.79-2.1001,0.99-2.3902   c-0.02-0.4099-0.46-1.3099,0.26-2.1799c1.19-1.4299,2.74-0.14,2.9-0.1c1.05-0.63,2.03-0.89,2.87,0.09   c0.7,0.8301,0.33,1.77,0.27,2.1899l0.54,0.5301C42.89441,25.35843,42.32441,27.17853,40.81441,27.39843z" fill="param(fill)" fill-opacity="param(fill-opacity)" stroke="param(outline)" stroke-opacity="param(outline-opacity)" stroke-width="param(outline-width)"/>
<path d="M36.14441,14.44843c2.82089,0,5.13339,0.9266,7.34,2.66c2.01719-4.5457-0.74621-11.6423-3.73-15.7   c-0.25-0.34-0.68-0.4799-1.08-0.3701c-0.41,0.1201-10.06,2.9401-12.42,9.9301c-0.97,2.89-0.52,5.9701,0.35,8.5899   C28.67441,16.38843,32.24441,14.44843,36.14441,14.44843z" fill="param(fill)" fill-opacity="param(fill-opacity)" stroke="param(outline)" stroke-opacity="param(outline-opacity)" stroke-width="param(outline-width)"/>
<path d="M20.09441,38.35843c0.176-1.8458,0.884-3.8691,2.2-5.64c-1.22361-0.0583-1.61821-1.2757-1.81-1.6601   c-0.31931-0.1085-1.73041,0.0383-2.19-1.3199c-0.45361-1.3813,0.82949-2.1742,0.98-2.39l-0.13-0.73   c-0.09-0.52,0.06-1.0601,0.4-1.46c1.17749-1.4222,2.70929-0.1322,2.89-0.09c0.77339-0.4641,1.44459-0.7928,2.31-0.36   c0.13-1.2,0.43-2.36,0.92-3.45c0.07-0.19,0.2-0.4501,0.34-0.7001c-0.57-0.0999-1.16-0.1599-1.74-0.1599   C14.31941,20.39843,11.1102,33.91863,20.09441,38.35843z" fill="param(fill)" fill-opacity="param(fill-opacity)" stroke="param(outline)" stroke-opacity="param(outline-opacity)" stroke-width="param(outline-width)"/>
<path d="M20.42441,29.02833c0.21859,0.1227,1.26149-0.2089,1.99,1.4401c0.01,0.01,0.01,0.02,0.02,0.03   c0.87309-1.7462,1.72-1.3097,2.01-1.4701c-1.41861-1.4186-0.70531-1.9486-0.77-2.3699c-0.01,0.01-0.02,0.01-0.03,0.0201   c-1.24481,0.705-1.65821,0.3381-2.46-0.0201l0.07,0.45C21.4795,28.25403,20.5239,28.88443,20.42441,29.02833z" fill="param(fill)" fill-opacity="param(fill-opacity)" stroke="param(outline)" stroke-opacity="param(outline-opacity)" stroke-width="param(outline-width)"/>
<path d="M20.07441,40.57843c-0.54981-0.4279-5.71921-1.8747-7.14-8.97c-4.83,2.31-8.19,7.1-8.36,7.34c-0.24,0.3399-0.24,0.8,0,1.14   c0.24,0.3501,5.99,8.5901,13.37,8.61c1.71,0,3.45-0.44,5.2-1.31C21.2999,45.37403,20.3048,43.05993,20.07441,40.57843z" fill="param(fill)" fill-opacity="param(fill-opacity)" stroke="param(outline)" stroke-opacity="param(outline-opacity)" stroke-width="param(outline-width)"/>
</svg>
