<svg xmlns="http://www.w3.org/2000/svg" xmlns:xlink="http://www.w3.org/1999/xlink" version="1.1" x="0px" y="0px" viewBox="0 0 100 125" enable-background="new 0 0 100 100" xml:space="preserve"><path d="M64.548,12.936c-0.134,5.053-4.406,9.074-9.335,8.795c-4.73-0.268-8.529-4.27-8.55-9.018  c-0.022-4.975,4.17-9.188,9.087-9.131C60.7,3.635,64.682,7.875,64.548,12.936z"/><path fill="param(fill)" fill-opacity="param(fill-opacity)" stroke="param(outline)" stroke-width="param(stroke-width)" stroke-opacity="param(outline-opacity)" stroke-dasharray="param(stroke-dasharray)" d="M33.534,9.341c-1.682-1.247-4.001-0.837-5.154,0.91l-4.026,6.102c-1.153,1.747-2.305,4.877-2.558,6.955l-2.335,19.126  c-0.254,2.078,1.234,4.021,3.307,4.319l8.734,1.254c2.072,0.298,4.238-1.105,4.812-3.118l6.848-23.979  c0.574-2.013-0.331-4.679-2.013-5.926L33.534,9.341z"/><path d="M95.701,55.803c-2.212-1.274-4.424-2.179-6.787-2.928c-2.35-0.729-4.797-1.231-7.309-1.426  c-0.282-0.021-0.567-0.025-0.851-0.039c-0.218-0.077-0.448-0.127-0.692-0.127c-0.192,0-0.375,0.034-0.552,0.083  c-1.838-0.012-3.695,0.146-5.535,0.512c-2.543,0.499-5.036,1.403-7.35,2.647l-0.061,0.032c-0.097,0.054-0.192,0.112-0.285,0.178  c-1.351,0.946,2.079,5.838,3.43,4.892c2.432-1.705,5.262-2.842,8.277-3.394V94c0,1.146,0.929,2.075,2.075,2.075  s2.075-0.929,2.075-2.075V55.854c1.948-0.02,3.924,0.164,5.881,0.541c2.153,0.418,4.375,1.068,6.321,1.918l0.078,0.034  c0.658,0.288,1.44,0.041,1.808-0.596C96.618,57.068,96.384,56.196,95.701,55.803z"/><g><path fill="param(fill)" fill-opacity="param(fill-opacity)" stroke="param(outline)" stroke-width="param(stroke-width)" stroke-opacity="param(outline-opacity)" stroke-dasharray="param(stroke-dasharray)" d="M81.258,42.975L52.553,25.127c-0.178-0.109-0.392-0.229-0.586-0.318c-2.814-1.321-6.158-0.13-7.516,2.656   c-0.672,0.79-1.186,1.734-1.463,2.806l-4.883,18.836h14.641l2.632-10.152l22.364,10.495c1.67,0.787,3.702,0.215,4.701-1.393   C83.52,46.326,82.989,44.051,81.258,42.975z"/><path fill="param(fill)" fill-opacity="param(fill-opacity)" stroke="param(outline)" stroke-width="param(stroke-width)" stroke-opacity="param(outline-opacity)" stroke-dasharray="param(stroke-dasharray)" d="M63.553,67.908L53.234,57.61H37.996c-0.188,0.302-0.147,0.728-0.148,1.357c-0.002,0.844,0.258,1.345,1.458,2.278   l15.983,12.741v17.621c0,2.739,2.222,4.96,4.961,4.96s4.961-2.221,4.961-4.96v-20c-0.004-1.26-0.487-2.532-1.449-3.493   L63.553,67.908z"/></g><path d="M4.997,78.234c-1.062,0-1.979-0.793-2.108-1.874c-0.139-1.165,0.693-2.224,1.859-2.363  c18.666-2.231,28.819-21.424,28.919-21.617c0.366-0.705,1.094-1.147,1.888-1.147h16.752l-0.72,4.252H36.801  C34.16,59.993,23.556,76.03,5.252,78.22C5.167,78.229,5.081,78.234,4.997,78.234z"/><path fill="param(fill)" fill-opacity="param(fill-opacity)" stroke="param(outline)" stroke-width="param(stroke-width)" stroke-opacity="param(outline-opacity)" stroke-dasharray="param(stroke-dasharray)" d="M42.081,72.1l-9.88,21.095c-1.073,2.291-3.801,3.279-6.092,2.206c-2.244-1.051-3.234-3.695-2.268-5.956l9.187-21.405  c1.081-2.519,3.998-3.684,6.517-2.603c2.518,1.08,3.683,3.998,2.602,6.516C42.129,71.995,42.101,72.058,42.081,72.1z"/></svg>
