<svg enable-background="new 0 0 100 100" height="580" viewBox="0 0 580 580" width="580" xmlns="http://www.w3.org/2000/svg">
<path d="M88.588,49.045c-4.686-0.339-9.343,0.886-14.386,3.722l-2.109,1.187l-0.124-2.418c-0.307-6.008-2.96-10.906-8.285-15.2c0.919,7.624-1.013,16.187-4.729,21.708l0,0c-0.364,0.541-0.746,1.05-1.145,1.529l0,0c-0.812,0.978-1.683,1.834-2.621,2.503l-2.11,1.505L52.825,61c-0.315-3.216-2.186-7.403-4.824-10.221c0.488,5.086-1.302,8.735-3.176,12.556c-1.247,2.543-2.537,5.173-3.308,8.492c-1.121,4.832-0.188,9.172,2.775,12.901c0.87,1.095,1.923,2.105,3.101,3.026c2.715-8.31,7.923-15.847,17.55-22.016c-0.027,4.803,0.674,9.448,3.449,13.65c2.502-0.251,4.31-0.749,6.601-2.7c2.57,3.916,3.989,7.764,4.953,11.585c4.051-2.883,6.552-6.813,6.552-11.142c0-3.247-0.339-5.876-0.667-8.419C85.081,62.908,84.428,57.841,88.588,49.045z" fill="param(fill)" fill-opacity="param(fill-opacity)" stroke="param(outline)" stroke-opacity="param(outline-opacity)" stroke-width="param(outline-width)"/>
<path d="M51.462,40.197l7.285,11.797c2.189-5.609,2.882-12.834,1.311-18.697l-1.017-3.798l3.288,2.154c7.306,4.786,11.385,10.509,12.41,17.44c0.948-0.466,1.888-0.859,2.822-1.22l-8.417-13.63h6.232L61.471,11.726L51.11,28.504l7.222,11.693H51.462z" fill="param(fill)" fill-opacity="param(fill-opacity)" stroke="param(outline)" stroke-opacity="param(outline-opacity)" stroke-width="param(outline-width)"/>
<path d="M38.596,71.149c0.848-3.654,2.276-6.566,3.536-9.136c2.252-4.591,4.03-8.218,2.178-14.454l-1.01-3.396l3.142,1.639c4.334,2.263,7.582,7.473,8.85,12.146c0.698-0.788,1.336-1.716,1.921-2.73L46.083,37.197h6.87L37.348,11.927L21.742,37.197h6.87L14.794,59.572h7.274L11.412,76.828h22.061v10.119h7.75v-1.328C38.283,81.399,37.371,76.424,38.596,71.149z" fill="param(fill)" fill-opacity="param(fill-opacity)" stroke="param(outline)" stroke-opacity="param(outline-opacity)" stroke-width="param(outline-width)"/>
</svg>
