<svg height='100px' width='100px'  fill="#000000" xmlns:dc="http://purl.org/dc/elements/1.1/" xmlns:cc="http://creativecommons.org/ns#" xmlns:rdf="http://www.w3.org/1999/02/22-rdf-syntax-ns#" xmlns:svg="http://www.w3.org/2000/svg" xmlns="http://www.w3.org/2000/svg" xmlns:sodipodi="http://sodipodi.sourceforge.net/DTD/sodipodi-0.dtd" xmlns:inkscape="http://www.inkscape.org/namespaces/inkscape" viewBox="0 0 80 80" version="1.1" x="0px" y="0px">
<path fill="param(fill)" fill-opacity="param(fill-opacity)" stroke="param(outline)" stroke-opacity="param(outline-opacity)" stroke-width="param(outline-width)" d="m 30.1,15.625 c -1.01605,0 -1.8541,0.809361 -1.825,1.825 l 0.675,23.625 2.65,-1.2 -1.225,-24.25 -0.275,0 z"></path>
<path fill="param(fill)" fill-opacity="param(fill-opacity)" stroke="param(outline)" stroke-opacity="param(outline-opacity)" stroke-width="param(outline-width)" d="m 23.64749,-46.711319 3.653766,0 0,48.765316 -3.653766,0 c 1.359816,-14.843676 3.186097,-31.631309 0,-48.765316 z"></path>
<path fill="param(fill)" fill-opacity="param(fill-opacity)" stroke="param(outline)" stroke-opacity="param(outline-opacity)" stroke-width="param(outline-width)" d="m 32.775,15.625 1.2,23.925 c 2.342554,0.505895 4.672216,0.557438 7,0.025 l 1.175,-23.95 -9.375,0 z"></path>
<path fill="param(fill)" fill-opacity="param(fill-opacity)" stroke="param(outline)" stroke-opacity="param(outline-opacity)" stroke-width="param(outline-width)" d="m 44.55,15.625 -1.225,23.9 2.55,1.05 0.75,-23.125 c 0.03285,-1.015525 -0.833945,-1.825 -1.85,-1.825 l -0.225,0 z"></path>
<path fill="param(fill)" fill-opacity="param(fill-opacity)" stroke="param(outline)" stroke-opacity="param(outline-opacity)" stroke-width="param(outline-width)" d="m 35.75,20.4375 c -0.110393,1.16e-4 -0.214068,0.09505 -0.3125,0.28125 -1.517329,2.387538 -3.524167,4.187666 -3.90625,7.9375 l -8.1875,-7.5 C 22.640495,20.513765 21.548734,20.546747 20.90625,21.25 L 19.375,22.9375 c -0.642485,0.703255 -0.609502,1.795015 0.09375,2.4375 L 30.375,35.3125 c 1.456,1.113566 3.195729,1.696468 4.1875,0.15625 L 37.4375,30.75 C 38.300612,28.427629 36.817135,20.436376 35.75,20.4375 z"></path>
<path fill="param(fill)" fill-opacity="param(fill-opacity)" stroke="param(outline)" stroke-opacity="param(outline-opacity)" stroke-width="param(outline-width)" d="m 48.15,16.1 c -0.76202,-0.0057 -1.370169,0.612974 -1.375,1.375 0.09873,11.519192 -0.235429,14.006197 -0.167605,24.676232 0.0058,0.762037 0.637964,1.355822 1.4,1.35 L 50.275,43.575 c 0.762036,-0.0058 1.602125,-0.686731 1.596303,-1.448768 0.227015,-10.560081 -0.03852,-13.483988 0.152464,-24.651232 -0.0074,-0.762005 -0.61298,-1.369354 -1.375,-1.375 z"></path>
<path fill="param(fill)" fill-opacity="param(fill-opacity)" stroke="param(outline)" stroke-opacity="param(outline-opacity)" stroke-width="param(outline-width)" d="m 42.375,40.025 c -3.137622,0.990826 -6.28593,0.902896 -9.4,0.1 l -4,1.825 0.2,6.825 c 0.01,9.760272 0,19.428333 0,29.2 0,0.762041 0.63796,1.375 1.4,1.375 l 4.575,0 c 0.762041,0 1.375,-0.612959 1.375,-1.375 -0.01405,-9.112526 -0.0024,-18.142378 0,-27.225 l 1.75,0.075 c 0.0065,9.013562 0,17.963308 0,27 0,0.762041 0.637959,1.375 1.4,1.375 l 4.575,0 c 0.762042,0 1.375,-0.612959 1.375,-1.375 -0.03383,-9.854786 -0.0018,-19.572028 0,-29.4 L 45.85,41.45 42.375,40.025 z"></path>
<path fill="param(fill)" fill-opacity="param(fill-opacity)" stroke="param(outline)" stroke-opacity="param(outline-opacity)" stroke-width="param(outline-width)" d="M 54.96875,7.9375 C 54.598264,8.2301091 54.135873,8.40625 53.625,8.40625 l -13.9375,0 c -0.403659,0 -0.770402,-0.1224854 -1.09375,-0.3125 -0.251188,0.807596 -0.375,1.6722479 -0.375,2.5625 0,4.74801 3.845739,8.59375 8.59375,8.59375 4.748013,0 8.59375,-3.84574 8.59375,-8.59375 0,-0.9496023 -0.153178,-1.8646671 -0.4375,-2.71875 z"></path>
<path fill="param(fill)" fill-opacity="param(fill-opacity)" stroke="param(outline)" stroke-opacity="param(outline-opacity)" stroke-width="param(outline-width)" d="m 52.528655,4.3439142 c 3.45496,8.3445628 2.416541,11.7904058 2.416541,11.7904058 l 7.625939,-4.395111 c 0,0 -3.500496,-1.69206 -6.466137,-8.6244524 -1.146829,0.1355457 -2.807085,0.5562023 -3.576343,1.2291576 z"></path>
<path fill="param(fill)" fill-opacity="param(fill-opacity)" stroke="param(outline)" stroke-opacity="param(outline-opacity)" stroke-width="param(outline-width)" d="M 46.28125 -0.46875 C 43.4816 -0.28760295 41.068436 1.3547411 39.75 3.71875 C 38.665718 3.8444324 37.8125 4.7246733 37.8125 5.84375 C 37.8125 7.0492625 38.794487 8.03125 40 8.03125 L 53.90625 8.03125 C 55.111763 8.03125 56.09375 7.0492625 56.09375 5.84375 C 56.09375 4.6382375 55.111763 3.6875 53.90625 3.6875 L 53.875 3.6875 C 52.540382 1.2898124 50.046962 -0.35825449 47.125 -0.46875 C 46.84478 -0.47934666 46.555193 -0.48647508 46.28125 -0.46875 z "></path>
<path fill="param(fill)" fill-opacity="param(fill-opacity)" stroke="param(outline)" stroke-opacity="param(outline-opacity)" stroke-width="param(outline-width)" d="m 64.183726,57.181358 c 0.06234,0.45936 -0.05642,0.944495 -0.268976,1.286338 -0.263212,0.271261 -2.861692,0.809911 -4.210398,0.955151 -0.571995,0.134908 -0.797176,-0.16284 -1.167068,-0.315342 -0.277248,-0.11359 -0.494085,-0.307616 -0.720767,-0.501162 -0.897437,0.545366 -0.43419,0.559868 -1.700688,0.902074 0.131057,0.06665 0.04796,0.213589 0.03269,0.321966 -0.08474,0.235124 0.106921,0.427119 0.118313,0.657713 0.04704,-0.007 0.09927,-0.009 0.145622,-0.01907 0.05926,0.108556 0.121447,0.215857 0.15975,0.332259 -0.05085,0.03406 -0.09972,0.06202 -0.153662,0.09676 0.0438,0.111918 0.102989,0.239609 0.248567,0.224311 -0.02563,0.179569 -0.111751,0.352888 -0.03507,0.526583 0.04412,0.128267 0.08248,0.261843 0.09879,0.396167 l 0.178743,-0.03894 c 0.05616,0.109229 0.121696,0.206428 0.180948,0.314984 -0.05703,0.0354 -0.12666,0.08055 -0.18678,0.116628 0.04207,0.118865 0.09676,0.306621 0.284316,0.216523 -0.04308,0.143985 -0.100093,0.291751 -0.115707,0.442892 0.01455,0.170817 0.09489,0.321003 0.131755,0.490242 0.04704,-0.007 0.09859,-0.01206 0.145623,-0.01907 0.04139,0.115734 0.128961,0.214219 0.123999,0.340044 -0.03336,0.04007 -0.07108,0.08111 -0.11265,0.113141 0.03591,0.12021 0.0764,0.249158 0.23402,0.214823 -0.03072,0.141289 -0.06559,0.278158 -0.0826,0.423019 0.05918,0.167664 0.133913,0.334535 0.125109,0.517004 0.06726,-0.01823 0.130685,-0.04719 0.19731,-0.06829 0.04585,0.121324 0.09223,0.240971 0.141183,0.361617 -0.06527,0.02733 -0.115545,0.0594 -0.180127,0.08987 0.04517,0.118192 0.07651,0.28149 0.248567,0.224309 -0.03691,0.142636 -0.07246,0.276373 -0.08259,0.423023 0.0245,0.171935 0.09179,0.33434 0.122476,0.504921 l 0.131079,-0.02856 c 0.05616,0.109228 0.119249,0.216335 0.135919,0.337448 -0.04398,0.03585 -0.09249,0.08249 -0.136487,0.118331 0.0235,0.122911 0.1187,0.190701 0.23402,0.214822 -0.02764,0.140618 -0.05414,0.288319 -0.06804,0.43251 0.04991,0.169684 0.11694,0.341518 0.101268,0.522197 0.05908,-0.02598 0.121724,-0.06074 0.180128,-0.08987 0.05203,0.119984 0.116074,0.235776 0.165015,0.356426 -0.05462,0.03159 -0.11473,0.0653 -0.16558,0.09936 0.0071,0.04771 0.02191,0.157881 0.03283,0.208021 0.04669,0.0062 0.145225,0.01525 0.191905,0.02148 -0.03933,0.146441 -0.08944,0.29601 -0.115707,0.442892 0.04923,0.16655 0.128876,0.326259 0.122477,0.504923 0.230814,-0.09957 0.227683,0.173023 0.266994,0.308896 -0.04297,0.05535 -0.141973,0.110123 -0.108773,0.188239 0.03148,0.08506 0.134255,0.111366 0.206309,0.14491 -0.01452,0.08195 -0.03079,0.168412 -0.04532,0.250355 -0.0607,0.226608 0.05595,0.454166 0.08519,0.677584 0.05807,-0.01582 0.118702,-0.03221 0.17611,-0.05101 0.05444,0.116177 0.07723,0.244242 0.129264,0.364215 -0.05977,0.02285 -0.107982,0.05168 -0.170847,0.07518 0.04344,0.125139 0.03368,0.303483 0.227368,0.241587 -0.02794,0.09472 -0.03709,0.194626 -0.06125,0.291803 -0.06958,0.215426 0.04128,0.429232 0.06539,0.643924 0.05024,-0.0072 0.10855,-0.02365 0.154911,-0.03375 0.04894,0.12066 0.0715,0.245488 0.117352,0.366809 -0.198443,0.01039 -0.118461,0.160771 -0.07843,0.270232 0.058,0.01364 0.09816,0.01562 0.156153,0.02927 -0.0047,0.20128 -0.162117,0.397603 -0.05766,0.59479 0.05203,0.119972 0.0666,0.259208 0.07231,0.389279 0.0626,-0.0098 0.117719,-0.02186 0.178743,-0.03894 0.04449,0.115061 0.06114,0.238369 0.09089,0.359914 -0.04981,0.02395 -0.133405,0.06658 -0.180129,0.08986 0.02567,0.07319 0.05483,0.137102 0.07121,0.212314 0.05286,0.0049 0.100665,0.0123 0.153521,0.01718 -0.100204,0.268054 -0.329562,0.49452 -0.338523,0.795203 -0.01866,0.09269 -0.116338,0.140644 -0.180274,0.203812 0.02943,0.07567 0.0702,0.152499 0.100307,0.23129 -0.08456,0.08736 -0.178225,0.166313 -0.270334,0.248748 -0.04115,-0.04032 -0.0884,-0.09605 -0.129543,-0.136328 -0.04298,0.05536 -0.07542,0.116269 -0.125957,0.166668 0.0161,0.05887 0.02651,0.121712 0.03948,0.181252 -0.278723,-0.03119 -0.564777,-0.09119 -0.848391,-0.05568 -0.111265,0.02424 -0.198341,-0.05334 -0.303024,-0.07322 -0.06493,0.04369 -0.09693,0.104538 -0.137869,0.169259 -0.121458,-0.05234 -0.236887,-0.08802 -0.354566,-0.137929 0.02338,-0.07077 0.0417,-0.145939 0.06513,-0.216706 -0.07445,-0.02972 -0.138036,-0.05667 -0.207697,-0.09398 -0.0409,0.03517 -0.07438,0.06587 -0.115279,0.101054 -0.136368,-0.492254 -0.306388,-0.977975 -0.502513,-1.447368 -0.05443,-0.116164 -0.08348,-0.302944 -0.272399,-0.219116 0.02598,-0.19278 0.105545,-0.398399 0.01,-0.584408 -0.03695,-0.110129 -0.07605,-0.21965 -0.09753,-0.333152 -0.238339,0.06502 -0.264514,-0.189359 -0.337103,-0.344251 0.06354,-0.02039 0.121859,-0.04527 0.185393,-0.0657 -0.02555,-0.132312 -0.116195,-0.194051 -0.236651,-0.226904 0.02567,-0.209128 0.05959,-0.422611 -0.03629,-0.624955 -0.05967,-0.318558 -0.196886,-0.594064 -0.295379,-0.897598 -0.0626,0.0098 -0.121339,0.02008 -0.181373,0.02686 0.03382,-0.141959 0.06982,-0.288451 0.07996,-0.435107 -0.04204,-0.17796 -0.110691,-0.348961 -0.139652,-0.526495 -0.05526,-0.0011 -0.129995,0.02709 -0.17735,-0.01198 -0.07575,-0.09511 -0.110224,-0.208922 -0.157117,-0.320172 0.06217,-0.02664 0.129867,-0.06581 0.192046,-0.09246 -0.03209,-0.117749 -0.120981,-0.203332 -0.245935,-0.212227 0.01503,-0.213369 0.112151,-0.427492 -5.39e-4,-0.632741 -0.0631,-0.304685 -0.186354,-0.590259 -0.292746,-0.885517 -0.04222,-6.33e-4 -0.122536,-0.01082 -0.16544,-0.01459 0.03691,-0.142631 0.06559,-0.278154 0.0826,-0.42302 -0.04302,-0.167894 -0.119587,-0.340936 -0.113189,-0.519602 -0.05936,0.0099 -0.106952,0.01398 -0.169459,0.02426 -0.06062,-0.114818 -0.119859,-0.225575 -0.174294,-0.341747 0.06767,-0.03114 0.126321,-0.05238 0.194676,-0.08038 -0.03044,-0.124681 -0.124671,-0.201106 -0.23,-0.253669 0.03253,-0.20733 0.100239,-0.424896 -0.01245,-0.630145 -0.0587,-0.299074 -0.162395,-0.580016 -0.263651,-0.866541 -0.04359,-0.0069 -0.136398,-0.01717 -0.179989,-0.02408 0.02487,-0.123598 0.08,-0.243807 0.0812,-0.372092 -0.02552,-0.191407 -0.09096,-0.394045 -0.07869,-0.590402 -0.05736,0.01904 -0.118084,0.03504 -0.17611,0.05101 -0.04862,-0.104306 -0.12304,-0.193477 -0.154486,-0.308089 -0.01501,-0.09849 0.154669,-0.08571 0.181515,-0.140802 -0.02868,-0.131631 -0.12788,-0.220107 -0.253834,-0.248478 0.04072,-0.169723 0.146227,-0.353829 0.0589,-0.531774 -0.06637,-0.185793 -0.05669,-0.38557 -0.159469,-0.560149 -0.0709,-0.132279 -0.09715,-0.274112 -0.127871,-0.415145 -0.05181,-0.015 -0.117161,-0.03072 -0.170706,-0.03875 0.03001,-0.114869 0.07019,-0.229478 0.08647,-0.347921 -0.02379,-0.198353 -0.08649,-0.401111 -0.0694,-0.605084 -0.06045,0.01971 -0.12689,0.03706 -0.188027,0.05361 -0.05577,-0.15199 -0.272708,-0.425797 0.03632,-0.463569 -0.01323,-0.134995 -0.116296,-0.194509 -0.234021,-0.214822 0.02279,-0.103451 0.05589,-0.208087 0.08245,-0.309075 0.04241,-0.147115 -0.02785,-0.289207 -0.08021,-0.425528 -0.371801,0.0022 -0.7449,0.06013 -1.113177,-0.01065 -0.392172,-0.180476 -0.811036,-0.421322 -1.026142,-0.814356 -0.07194,-0.122209 -0.05047,-0.265532 -0.110697,-0.393573 -0.663761,-0.114629 -1.004129,-0.855338 -0.881054,-1.466162 0.01704,-0.174413 0.16077,-0.344341 0.07345,-0.522286 -0.462007,-2.227012 -0.695596,-3.200239 -1.187584,-5.107938 -0.065,-0.179525 0.02049,-0.334423 0.07871,-0.498121 -0.13489,-0.604192 -0.196624,-1.231542 -0.325982,-1.84022 -0.09702,-0.38593 0.09694,-0.775231 -0.0038,-1.163621 -0.304438,-1.991979 -0.669852,-3.972474 -0.986654,-5.961765 -0.03946,-0.299987 0.06134,-0.602999 0.198298,-0.865913 0.230512,-0.398188 0.646776,-0.650459 1.086317,-0.742928 0.622932,-0.142248 1.238506,-0.367828 1.886619,-0.335035 0.281815,0.03052 0.565372,0.146769 0.784509,0.335392 0.384083,0.336529 0.652977,0.778272 0.999253,1.149298 0.125065,-0.07977 0.259173,-0.146921 0.390741,-0.211689 0.19237,-0.09772 0.357938,0.07713 0.449753,0.231114 1.049793,1.838758 1.578772,2.827621 2.552673,4.785257 0.212494,0.0095 0.415938,-0.0044 0.62739,0.01522 0.138273,0.05526 0.223355,0.206316 0.317291,0.310597 0.322521,0.425443 0.627771,0.838589 0.927615,1.278818 0.02475,-0.03496 0.0636,-0.06028 0.09145,-0.09586 0.438994,0.350829 0.65794,0.885932 1.009641,1.311579 0.183055,0.216183 0.311487,0.473018 0.466367,0.708467 0.407872,0.620356 -0.212837,1.007665 -0.372484,1.498743 0.508427,0.283181 1.041659,0.515017 1.547675,0.802003 0.360872,0.229971 0.733596,0.448075 1.067297,0.716792 0.288421,0.239187 0.414041,0.614711 0.509731,0.96482 0.01901,0.176413 0.131806,0.348124 0.08936,0.524793 -0.02951,0.265767 -0.133633,0.523617 -0.318562,0.714911 -0.550101,0.654926 -1.362715,0.98355 -2.120808,1.322678 0.09872,0.126219 0.159237,0.36425 0.355671,0.314893 1.200432,-0.195844 2.395451,-0.486212 3.595884,-0.682056 0.143172,-0.0115 0.297321,-0.03339 0.431469,0.03258 0.105689,0.140756 0.17339,0.314119 0.217803,0.484156 0.01666,0.06377 0.03324,0.127709 0.04212,0.193339 z M 60.906068,54.224776 C 60.744349,53.67732 59.523296,53.3125 58.596471,53.019175 c 0.116622,0.92884 0.152751,1.930947 0.193769,2.780338 0.653623,-0.253997 1.312223,-0.528095 1.876799,-0.953095 0.234262,-0.226196 0.292938,-0.439158 0.239029,-0.621642 z m -8.57734,-9.522983 c -0.368842,-0.444896 -0.62196,-0.971096 -0.940636,-1.453185 -0.262794,-0.418754 -0.508197,-0.856213 -0.764808,-1.276312 -0.161707,-0.26679 -0.442803,-0.445871 -0.737948,-0.522735 -0.486401,-0.04833 -0.961839,0.08901 -1.399445,0.279541 -0.290909,0.106049 -0.409425,0.461284 -0.313301,0.739078 0.295299,1.058384 0.661545,2.103271 0.962343,3.157171 0.274601,0.83111 0.786012,2.045807 1.347846,1.832793 0.435053,-0.0685 0.867092,-0.214195 1.293591,-0.307102 0.253065,-0.04201 0.418942,-0.23465 0.582925,-0.418097 -0.145029,-0.427994 -0.483301,-0.769821 -0.864439,-0.988808 -0.151612,-0.101566 -0.444335,-0.08734 -0.470812,-0.327784 0.361604,-0.361092 0.838257,-0.537445 1.304684,-0.714552 z"></path></svg>
