<?xml version="1.0" encoding="UTF-8" standalone="no"?>
<svg
   xmlns:dc="http://purl.org/dc/elements/1.1/"
   xmlns:cc="http://creativecommons.org/ns#"
   xmlns:rdf="http://www.w3.org/1999/02/22-rdf-syntax-ns#"
   xmlns:svg="http://www.w3.org/2000/svg"
   xmlns="http://www.w3.org/2000/svg"
   xmlns:sodipodi="http://sodipodi.sourceforge.net/DTD/sodipodi-0.dtd"
   xmlns:inkscape="http://www.inkscape.org/namespaces/inkscape"
   version="1.1"
   x="0px"
   y="0px"
   viewBox="0 0 100 125"
   enable-background="new 0 0 100 100"
   xml:space="preserve"
   id="svg14"
   sodipodi:docname="noun_Fire_1214426.svg"
   inkscape:version="0.92.5 (2060ec1f9f, 2020-04-08)"><metadata
     id="metadata20"><rdf:RDF><cc:Work
         rdf:about=""><dc:format>image/svg+xml</dc:format><dc:type
           rdf:resource="http://purl.org/dc/dcmitype/StillImage" /></cc:Work></rdf:RDF></metadata><defs
     id="defs18" /><sodipodi:namedview
     pagecolor="#ffffff"
     bordercolor="#666666"
     borderopacity="1"
     objecttolerance="10"
     gridtolerance="10"
     guidetolerance="10"
     inkscape:pageopacity="0"
     inkscape:pageshadow="2"
     inkscape:window-width="1210"
     inkscape:window-height="649"
     id="namedview16"
     showgrid="false"
     inkscape:zoom="2.88"
     inkscape:cx="50"
     inkscape:cy="62.5"
     inkscape:window-x="0"
     inkscape:window-y="28"
     inkscape:window-maximized="0"
     inkscape:current-layer="svg14" /><g
     id="g8"
     transform="matrix(1.8927823,0,0,1.9387861,-45.159486,-33.397634)"><g
       id="g6"><path
         d="m 73.196,47 h -2.07 L 68.56,41.832 C 68.31,41.324 67.786,41 67.216,41 h -12.02 c -0.828,0 -1.5,0.672 -1.5,1.5 V 47 H 50.063 L 38.497,26.969 C 38.079,26.25 37.163,26.004 36.446,26.418 l -10.393,6 c -0.717,0.412 -0.963,1.332 -0.549,2.051 l 12,20.781 c 0.279,0.48 0.783,0.75 1.299,0.75 0.256,0 0.514,-0.066 0.75,-0.201 L 47.696,51.1 v 24.4 c 0,0.828 0.672,1.5 1.5,1.5 h 24 c 0.828,0 1.5,-0.672 1.5,-1.5 v -27 c 0,-0.828 -0.672,-1.5 -1.5,-1.5 z"  fill="param(fill)" fill-opacity="param(fill-opacity)" stroke="param(outline)" stroke-opacity="param(outline-opacity)" stroke-width="param(outline-width)"
         id="path2"
         inkscape:connector-curvature="0" /><path
         d="m 67.196,38 c 2.25,0 3.344,-1.066 3.867,-1.957 0.992,-1.691 0.824,-4.25 -0.508,-7.816 C 69.659,25.829 68.551,23.852 68.504,23.766 68.235,23.291 67.737,23 67.196,23 c -0.543,0 -1.041,0.293 -1.309,0.766 -0.049,0.086 -1.156,2.062 -2.053,4.461 -1.33,3.562 -1.5,6.125 -0.506,7.816 0.521,0.895 1.618,1.957 3.868,1.957 z"  fill="param(fill)" fill-opacity="param(fill-opacity)" stroke="param(outline)" stroke-opacity="param(outline-opacity)" stroke-width="param(outline-width)"
         id="path4"
         inkscape:connector-curvature="0" /></g></g></svg>
