<?xml version="1.0" standalone="no"?>
<!DOCTYPE svg PUBLIC "-//W3C//DTD SVG 20010904//EN"
 "http://www.w3.org/TR/2001/REC-SVG-20010904/DTD/svg10.dtd">
<svg version="1.0" xmlns="http://www.w3.org/2000/svg"
 width="1280.000000pt" height="1251.000000pt" viewBox="0 0 1280.000000 1251.000000"
 preserveAspectRatio="xMidYMid meet">
<g transform="translate(0.000000,1251.000000) scale(0.100000,-0.100000)"
fill="#000000" stroke="none">
<path d="M7167 12383 c-379 -342 -792 -913 -1201 -1663 -584 -1069 -1204
-2632 -1671 -4217 -30 -103 -58 -189 -60 -192 -12 -11 -38 34 -135 239 -155
325 -525 1060 -646 1280 -500 917 -988 1639 -1553 2300 -191 223 -475 530
-491 530 -3 0 5 -80 17 -177 48 -385 58 -555 57 -998 0 -326 -4 -459 -18 -595
-59 -595 -166 -1069 -361 -1608 -122 -340 -215 -553 -507 -1167 -116 -242
-243 -517 -283 -610 -195 -455 -283 -794 -312 -1203 -6 -86 5 -207 38 -422 93
-600 435 -1256 1060 -2031 153 -190 284 -314 439 -418 313 -209 720 -360 1277
-475 313 -65 567 -103 1567 -236 208 -28 460 -66 560 -86 462 -90 1083 -230
1271 -285 134 -40 349 -130 400 -169 70 -53 151 -103 227 -141 l64 -31 45 20
c120 55 310 125 387 143 141 33 323 86 547 159 116 38 260 83 320 100 455 131
1042 359 1430 556 603 306 987 604 1283 996 317 421 496 838 577 1343 23 138
31 523 15 679 -6 67 -23 182 -36 256 -48 260 -76 322 -469 1025 -367 655 -533
1035 -645 1470 -156 609 -131 1167 77 1733 57 154 198 438 290 584 385 610
964 1173 1793 1743 102 69 187 128 188 130 27 26 -640 -224 -938 -352 -1389
-598 -2518 -1413 -3368 -2431 -136 -163 -352 -449 -451 -595 -39 -58 -75 -108
-80 -111 -15 -10 -28 14 -95 175 -593 1426 -836 2821 -690 3974 34 267 89 534
155 748 17 54 29 103 27 108 -2 5 -47 -30 -101 -78z"/>
</g>
</svg>
