<svg xmlns="http://www.w3.org/2000/svg" xmlns:xlink="http://www.w3.org/1999/xlink" version="1.1" x="0px" y="0px" viewBox="0 0 580 580" enable-background="new 0 0 580 580" xml:space="preserve">
<path d="M575.561,448.256c-1.054,6.507-2.828,14.804-5.816,24.3c-4.206,13.371-9.971,26.41-17.133,38.754  c-8.941,15.412-20.099,29.778-33.16,42.698c-1.937,1.916-4.93,2.265-7.256,0.847c-2.326-1.42-3.385-4.241-2.566-6.84  c20.967-66.625,15.907-115.646,7.971-145.038c-4.482-16.601-10.336-28.834-14.457-36.174c-1.484-2.645-2.857-4.861-4.03-6.645  c-43.595,46.927-82.929,96.185-111.196,139.299c-15.489,23.626-27.522,45.133-35.765,63.924  c-8.575,19.55-12.923,35.854-12.923,48.46c0,60.437,33.674,114.543,85.26,141.972c-2.886-3.442-5.545-7.089-7.954-10.918  c-9.858-15.672-15.068-33.765-15.068-52.324c0-8.285,2.677-18.589,7.956-30.625c4.784-10.907,11.716-23.312,20.602-36.865  c16.573-25.279,39.828-54.244,65.481-81.559c1.914-2.038,4.991-2.462,7.384-1.017c2.393,1.444,3.451,4.365,2.54,7.008  c-0.051,0.146-5.223,15.411-6.726,36.1c-1.104,15.197-0.354,35.972,7.789,55.707c4.244-14.905,9.771-27.616,16.504-37.922  c6.892-10.551,12.568-14.623,13.192-15.053c2.567-1.766,6.063-1.242,8.001,1.197c18.237,22.97,32.294,44.167,41.779,63.004  c8.226,16.337,12.574,30.178,12.574,40.028c0,18.558-5.21,36.647-15.064,52.317c-2.408,3.828-5.065,7.474-7.949,10.914  c51.573-27.431,85.246-81.535,85.246-141.961C660.775,585.772,638.179,529.537,575.561,448.256z" fill="#fbad3c"/>
<path d="M575.381,655.878c-8.427-16.734-20.687-35.51-36.486-55.882c-1.79,1.999-4.044,4.842-6.502,8.703  c-5.432,8.531-12.98,23.889-18.095,48.603c-0.49,2.367-2.368,4.199-4.747,4.631c-2.379,0.431-4.781-0.625-6.07-2.67  c-7.313-11.592-12.339-24.926-14.94-39.632c-2.059-11.642-2.609-24.163-1.636-37.217c0.432-5.787,1.122-11.149,1.91-15.929  c-19.041,21.601-36.03,43.499-48.876,63.094c-8.525,13.004-15.14,24.823-19.66,35.128c-4.617,10.526-6.958,19.228-6.958,25.863  c0,32.815,18.218,62.432,47.557,77.336c0.754,0.353,1.423,0.859,1.964,1.479c12.072,2.121,24.488,3.23,37.159,3.23  c12.678,0,25.102-1.111,37.181-3.233c0.489-0.563,1.092-1.041,1.794-1.396c29.431-14.874,47.713-44.537,47.713-77.412  C586.688,686.003,585.219,675.417,575.381,655.878z" fill="#ef5724"/>
<path d="M696.973,493.663c-10.925-24.91-26.863-53.404-47.373-84.689c-36.864-56.23-87.941-120.337-144.616-181.59  c-1.485,10.53-4.552,26.514-10.836,45.182c-6.504,19.318-15.131,37.515-25.643,54.085c-13.164,20.752-29.332,38.991-48.053,54.211  c-1.812,1.473-4.321,1.745-6.407,0.693s-3.359-3.229-3.253-5.563c0.75-16.471-1.959-29.343-4.365-37.241  c-0.584-1.918-1.179-3.645-1.751-5.17c-39.587,50.589-70.221,97.219-91.111,138.703c-17.896,35.537-27.753,66.126-27.753,86.132  c0,73.561,37.273,138.577,93.922,177.161c-5.527-5.376-10.703-11.124-15.498-17.224c-11.704-14.887-20.816-31.441-27.084-49.206  c-6.488-18.385-9.777-37.666-9.777-57.307c0-14.255,4.684-32.162,13.921-53.222c8.506-19.394,20.857-41.485,36.707-65.661  c29.686-45.28,71.366-97.185,117.363-146.154c1.15-1.226,2.771-1.906,4.448-1.868c1.681,0.036,3.267,0.784,4.363,2.058  c0.62,0.72,15.298,18.028,24.652,52.103c5.439,19.813,7.972,41.3,7.525,63.862c-0.404,20.459-3.272,41.852-8.548,63.861  c16.656-21.351,25.666-42.197,30.48-57.35c6.771-21.31,6.961-36.325,6.962-36.475c0.019-2.513,1.62-4.745,3.996-5.563  s5.01-0.055,6.573,1.913c32.626,41.088,57.753,78.967,74.683,112.585c14.477,28.748,22.129,52.924,22.129,69.915  c0,19.639-3.289,38.918-9.775,57.301c-6.268,17.764-15.379,34.318-27.08,49.203c-4.794,6.1-9.97,11.848-15.496,17.223  c56.646-38.584,93.918-103.598,93.918-177.155C714.196,541.506,708.401,519.72,696.973,493.663z" fill="#ef5724"/>
</svg>
