<svg xmlns="http://www.w3.org/2000/svg" xmlns:xlink="http://www.w3.org/1999/xlink" version="1.1" x="0px" y="0px" viewBox="0 0 160 200" style="enable-background:new 0 0 160 160;" xml:space="preserve"><style type="text/css">
	.st0{fill:none;stroke:#FFFFFF;stroke-width:0;stroke-linecap:round;stroke-linejoin:round;}
</style><line class="st0" x1="-100.5" y1="112.9" x2="-100.5" y2="112.9"/><g><path style="fill:param(fill) #ffffff;fill-opacity:1;stroke:param(outline) #000000;stroke-width:param(stroke-width) 1.01988637;stroke-miterlimit:4;stroke-opacity:1;stroke-dasharray:none;" d="M114.1,96.9c0.4-2.7,1.4-5.1,3-7.2H92.2c1.6,2.1,2.6,4.5,3,7.2H114.1z"/><path style="fill:param(fill) #ffffff;fill-opacity:1;stroke:param(outline) #000000;stroke-width:param(stroke-width) 1.01988637;stroke-miterlimit:4;stroke-opacity:1;stroke-dasharray:none;" d="M61.5,60.2h86.3C121.9,42.3,87.4,42.3,61.5,60.2z"/><path style="fill:param(fill) #ffffff;fill-opacity:1;stroke:param(outline) #000000;stroke-width:param(stroke-width) 1.01988637;stroke-miterlimit:4;stroke-opacity:1;stroke-dasharray:none;" d="M64.8,96.9c0.4-2.7,1.4-5.1,3-7.2H62v7.2H64.8z"/><path style="fill:param(fill) #ffffff;fill-opacity:1;stroke:param(outline) #000000;stroke-width:param(stroke-width) 1.01988637;stroke-miterlimit:4;stroke-opacity:1;stroke-dasharray:none;" d="M154.2,64.2L154.2,64.2H55.6v1.1c1.2,1.2,1.9,2.9,1.9,4.7s-0.7,3.5-1.9,4.7v11l16.7,0c2.3-1.3,4.9-2.1,7.7-2.1   s5.5,0.8,7.7,2.1h33.7c2.3-1.3,4.9-2.1,7.7-2.1s5.5,0.8,7.7,2.1l17.2,0V64.2z"/><path style="fill:param(fill) #ffffff;fill-opacity:1;stroke:param(outline) #000000;stroke-width:param(stroke-width) 1.01988637;stroke-miterlimit:4;stroke-opacity:1;stroke-dasharray:none;" d="M147.2,96.9v-7.2h-5.8c1.6,2.1,2.6,4.5,3,7.2H147.2z"/><path style="fill:param(fill) #ffffff;fill-opacity:1;stroke:param(outline) #000000;stroke-width:param(stroke-width) 1.01988637;stroke-miterlimit:4;stroke-opacity:1;stroke-dasharray:none;" d="M68.7,98.9c0,2.8,1.1,5.4,2.8,7.4c2.6,0.6,5.1,1.7,7.4,3.3c3.1-2.1,6.5-3.3,10.1-3.8c1.5-1.9,2.4-4.3,2.4-6.9   c0-6.2-5.1-11.3-11.3-11.3C73.8,87.6,68.7,92.6,68.7,98.9z M85.9,98.9c0,3.2-2.6,5.9-5.9,5.9c-3.2,0-5.9-2.6-5.9-5.9S76.8,93,80,93   C83.3,93,85.9,95.6,85.9,98.9z"/><path style="fill:param(fill) #ffffff;fill-opacity:1;stroke:param(outline) #000000;stroke-width:param(stroke-width) 1.01988637;stroke-miterlimit:4;stroke-opacity:1;stroke-dasharray:none;" d="M117.9,98.9c0,2.6,0.9,5,2.4,6.9c3.5,0.4,7,1.7,10.1,3.8c2.3-1.6,4.8-2.6,7.4-3.3c1.7-2,2.8-4.6,2.8-7.4   c0-6.2-5.1-11.3-11.3-11.3C123,87.6,117.9,92.6,117.9,98.9z M135.1,98.9c0,3.2-2.6,5.9-5.9,5.9s-5.9-2.6-5.9-5.9s2.6-5.9,5.9-5.9   S135.1,95.6,135.1,98.9z"/><path style="fill:param(fill) #ffffff;fill-opacity:1;stroke:param(outline) #000000;stroke-width:param(stroke-width) 1.01988637;stroke-miterlimit:4;stroke-opacity:1;stroke-dasharray:none;" d="M78.9,133.5c3.9-2.6,8.4-4,12.9-4c4.5,0,9,1.3,12.9,4c7.8-5.3,18-5.3,25.8,0c7.1-4.8,16.3-5.2,23.8-1.2V125   c-6.8-4.8-15.9-4.6-22.5,0.5l-1.2,1l-1.2-1c-6.9-5.3-16.4-5.3-23.3,0l-1.2,1l-1.2-1c-6.9-5.3-16.4-5.3-23.3,0l-1.2,1l-1.2-1   c-6.5-5-15.3-5.3-22.1-0.8v7.4C63,128.3,71.9,128.8,78.9,133.5z"/><path style="fill:param(fill) #ffffff;fill-opacity:1;stroke:param(outline) #000000;stroke-width:param(stroke-width) 1.01988637;stroke-miterlimit:4;stroke-opacity:1;stroke-dasharray:none;" d="M78.9,121.5c7.8-5.3,18-5.3,25.8,0c7.8-5.3,18-5.3,25.8,0c7.1-4.8,16.3-5.2,23.8-1.2V113c-6.8-4.8-15.9-4.6-22.5,0.6   l-1.2,1l-1.2-1c-6.9-5.3-16.4-5.3-23.3,0l-1.2,1l-1.2-1c-6.9-5.3-16.4-5.3-23.3,0l-1.2,1l-1.2-1c-6.5-5-15.3-5.3-22.1-0.9v7.4   C63,116.3,71.9,116.8,78.9,121.5z"/><g><path style="fill:param(fill) #ffffff;fill-opacity:1;stroke:param(outline) #000000;stroke-width:param(stroke-width) 1.01988637;stroke-miterlimit:4;stroke-opacity:1;stroke-dasharray:none;" d="M6.1,57.1v28.8c0,1.4,1.1,2.5,2.5,2.5c0.8,0,1.5-0.4,2-1V49.7C7.9,51.2,6.1,53.9,6.1,57.1z"/><path style="fill:param(fill) #ffffff;fill-opacity:1;stroke:param(outline) #000000;stroke-width:param(stroke-width) 1.01988637;stroke-miterlimit:4;stroke-opacity:1;stroke-dasharray:none;" d="M26.8,55h-9.5v-5.2h-4.8v79.8c0,1.8,1.2,3.5,3,3.9c2.5,0.5,4.7-1.4,4.7-3.8V94.1c0-1.1,0.9-2,2-2c1.1,0,2,0.9,2,2v35.6    c0,1.8,1.2,3.4,2.9,3.7c2.4,0.5,4.5-1.3,4.5-3.6V49.7h-4.8V55z"/><path style="fill:param(fill) #ffffff;fill-opacity:1;stroke:param(outline) #000000;stroke-width:param(stroke-width) 1.01988637;stroke-miterlimit:4;stroke-opacity:1;stroke-dasharray:none;" d="M22.1,45.7c4.4,0,8.1-3.3,8.6-7.6H13.5C14,42.4,17.7,45.7,22.1,45.7z"/><path style="fill:param(fill) #ffffff;fill-opacity:1;stroke:param(outline) #000000;stroke-width:param(stroke-width) 1.01988637;stroke-miterlimit:4;stroke-opacity:1;stroke-dasharray:none;" d="M30.7,36.1h8.1l-8.6-4c-1.2-3.2-4.4-5.6-8.1-5.6s-6.9,2.3-8.1,5.6l-8.2,4h7.8H30.7z"/><path style="fill:param(fill) #ffffff;fill-opacity:1;stroke:param(outline) #000000;stroke-width:param(stroke-width) 1.01988637;stroke-miterlimit:4;stroke-opacity:1;stroke-dasharray:none;" d="M52.7,36.1L52.7,36.1v13c0,0.8-0.7,1.5-1.6,1.5h0V36.1v0h-4v0v14.5h0c-0.9,0-1.6-0.7-1.6-1.5v-13v0h-4v13    c0,3.1,2.5,5.5,5.6,5.5h0v13.1h-4.8c-0.7,0-1.3-0.5-1.5-1.2l-3.2-12c-0.6-2.2-2-3.9-3.9-4.9v9.6l2.7,9.3c0.6,2.2,2.6,3.7,4.9,3.7    h5.9v61.3h4V72.2c1.1-0.2,1.9-1.1,1.9-2.2s-0.8-2.1-1.9-2.2V54.6h0c3.1,0,5.6-2.5,5.6-5.5v-13H52.7z"/></g></g></svg>
