<svg xmlns="http://www.w3.org/2000/svg" xmlns:xlink="http://www.w3.org/1999/xlink" version="1.1" x="0px" y="0px" viewBox="0 0 160 200" style="enable-background:new 0 0 160 160;" xml:space="preserve"><g><path style="fill:param(fill) #ffffff;fill-opacity:1;stroke:param(outline) #000000;stroke-width:param(stroke-width) 1.01988637;stroke-miterlimit:4;stroke-opacity:1;stroke-dasharray:none;" d="M61.6,44.2c7.8,0,14.3-5.8,15.3-13.3H46.2C47.2,38.3,53.7,44.2,61.6,44.2z"/><path style="fill:param(fill) #ffffff;fill-opacity:1;stroke:param(outline) #000000;stroke-width:param(stroke-width) 1.01988637;stroke-miterlimit:4;stroke-opacity:1;stroke-dasharray:none;" d="M93.7,22.8H76.9c-1-7.5-7.5-13.3-15.3-13.3c-7.8,0-14.3,5.8-15.3,13.3H30v4h63.7V22.8z"/><rect x="114.7" y="100.6" width="4" height="49.9"/><path style="fill:param(fill) #ffffff;fill-opacity:1;stroke:param(outline) #000000;stroke-width:param(stroke-width) 1.01988637;stroke-miterlimit:4;stroke-opacity:1;stroke-dasharray:none;" d="M126.2,22.8v17.8c0,2.9-2.4,5.3-5.3,5.3h-2.2V22.8h-4v23.1h-2.2c-2.9,0-5.3-2.4-5.3-5.3V22.8h-4v17.8   c0,5.1,4.2,9.3,9.3,9.3h2.2v35.2h4V49.9h2.2c5.2,0,9.3-4.2,9.3-9.3V22.8H126.2z"/><path style="fill:param(fill) #ffffff;fill-opacity:1;stroke:param(outline) #000000;stroke-width:param(stroke-width) 1.01988637;stroke-miterlimit:4;stroke-opacity:1;stroke-dasharray:none;" d="M120.1,89.1h-18.5c-1.4,0-2.6-0.9-2.9-2.2L92,61.3c-1-3.6-3.2-6.7-6.2-8.7v18l5.5,19.1c1.2,4,4.9,6.9,9.2,6.9h19.7   c2.1,0,3.8-1.7,3.8-3.7S122.2,89.1,120.1,89.1z"/><path style="fill:param(fill) #ffffff;fill-opacity:1;stroke:param(outline) #000000;stroke-width:param(stroke-width) 1.01988637;stroke-miterlimit:4;stroke-opacity:1;stroke-dasharray:none;" d="M71.1,49.9v7.5H52v-7.5h-6.9c-1.3,0-2.6,0.2-3.8,0.5v100.1h18.5v-30h4v30h17.9V50.6c-1.5-0.5-3-0.7-4.6-0.7H71.1z"/><path style="fill:param(fill) #ffffff;fill-opacity:1;stroke:param(outline) #000000;stroke-width:param(stroke-width) 1.01988637;stroke-miterlimit:4;stroke-opacity:1;stroke-dasharray:none;" d="M29.8,65.1v55.4c0,2,1.7,3.7,3.8,3.7c2.1,0,3.8-1.7,3.8-3.7V52C32.8,54.7,29.8,59.6,29.8,65.1z"/></g></svg>
