<svg xmlns="http://www.w3.org/2000/svg" xmlns:xlink="http://www.w3.org/1999/xlink" version="1.1" id="Layer_1" x="0px" y="0px" viewBox="0 0 512 512" style="enable-background:new 0 0 512 512;" xml:space="preserve">
<path fill="param(fill)" fill-opacity="param(fill-opacity)" stroke="param(outline)" stroke-opacity="param(outline-opacity)" stroke-width="param(outline-width)" d="M153.903,213.912L0,367.814L144.185,512l153.903-153.903L153.903,213.912z M56.211,361.277l59.107-59.107l21.509,21.509    l-59.108,59.107L56.211,361.277z M114.297,419.364l-21.509-21.509l59.107-59.107l21.509,21.509L114.297,419.364z"/>
<path fill="param(fill)" fill-opacity="param(fill-opacity)" stroke="param(outline)" stroke-opacity="param(outline-opacity)" stroke-width="param(outline-width)" d="M512,98.872V68.454h-18.445c-1.652-7.143-4.464-13.935-8.348-20.153l13.042-13.042L476.74,13.75l-13.056,13.056    c-6.301-3.918-13.11-6.696-20.139-8.323V0h-30.418v18.483c-7.029,1.628-13.837,4.407-20.138,8.323L379.932,13.75l-21.509,21.51    l11.81,11.809L354.052,63.25l-11.81-11.81l-21.509,21.509l11.81,11.81l-17.407,17.407l-11.81-11.81l-21.509,21.51l11.81,11.809    l-17.407,17.407l-11.81-11.81l-21.509,21.509l11.81,11.81l-17.408,17.408l-11.81-11.81l-21.509,21.509l11.81,11.81l-15.639,15.639    l94.698,94.698l15.639-15.639l11.81,11.81l21.509-21.509l-11.81-11.81l17.407-17.407l11.809,11.81l21.509-21.509l-11.809-11.81    l17.408-17.408l11.809,11.809l21.509-21.509l-11.81-11.809l17.408-17.408l11.81,11.81l21.509-21.509l-11.81-11.81l16.181-16.181    l11.809,11.809l21.509-21.509l-13.042-13.042c3.882-6.218,6.696-13.01,8.347-20.152C493.553,98.872,512,98.872,512,98.872z"/>
</svg>
