<svg xmlns="http://www.w3.org/2000/svg" xmlns:xlink="http://www.w3.org/1999/xlink" version="1.1" x="0px" y="0px" viewBox="0 0 100 125" enable-background="new 0 0 100 100" xml:space="preserve"><path d="M94.259,50.31c0,0,1.52,6.855-2.26,10.234c-0.165,0.147-0.427,0.305-0.732,0.491c2.846-6.531-1.067-12.683-1.067-12.683  s0.036,5.226-3.203,7.482C96.192,33.621,72.08,27.958,72.08,27.958s8.667,12.817,3.037,21.417  c1.889-6.942-1.305-12.717-1.305-12.717s-1.263,6.971-4.167,9.69c-0.402,0.377,0.497-1.042,0.714-2.243  c1.329-7.36-2.353-13.553-2.353-13.553s-0.878,3.895-2.757,6.835l-4.964-8.706l3.518,0.68l-7.898-13.899l-7.878,13.263l3.818-0.894  L43.25,40.039l6.078-1.936l-6.891,10.573l-5.169-9.144l2.75,0.537l-6.175-10.966l-6.161,10.464l2.985-0.706l-6.726,9.915  l5.731-1.815l-8.097,11.385l5.262-1.064l-4.576,5.414l-7.063-10.854L7.771,62.762l3.599-0.736L3.51,73.711l6.66-3.231L0.455,83.804  l23.935-0.029h62.967C109.032,71.158,94.259,50.31,94.259,50.31 M67.868,41.979l-1.158-2.033c0.528-0.839,0.919-1.737,1.241-2.623  c0.75,4.09,0.101,7.215-1.51,10.06l-4.697-8.323L67.868,41.979z M46.303,47.16c1.776,4.398-0.73,8.906-2.343,10.924l-3.069-5.604  C43.205,51.496,45.45,48.976,46.303,47.16 M41.951,49.423l-1.443,2.216l-2.099-3.919L41.951,49.423z M60.495,73.825  c-3.248,5.494-10.584,6.13-12.328,6.373c-0.373,0.052-5.523-5.392-5.523-5.392l8.1,0.407l-8.476-8.121l6.316,0.562l-9.199-9.615  l5.651,1.825l-0.853-1.362c0.805-0.393,1.965-1.12,2.825-2.322c1.512-2.112,2.315-4.061,2.315-4.061s0.32,2.066,0.017,3.885  c-0.357,2.137-1.527,4.401-1.527,4.401c6.942-4.165,4.421-12.303,3.019-14.931c8.303,4.083,7.817,14.004,3.768,18.285  c1.784-0.123,3.964-1.876,4.25-2.87c0.269,1.275,0.515,4.866-3.786,7.845c3.629-0.144,6.088-3.89,6.191-5.374  C62.497,67.205,62.535,70.376,60.495,73.825 M85,80.464H73.266l-4.13-3.938l10.456,2.391L66.619,64.406l9.577,2.169L62.993,52.142  l7.321,2.101l-1.808-3.203c2.985-1.51,4.21-5.095,4.666-6.078c1.057,4.606-1.816,10.667-1.816,10.667s13.325-6.407,6.151-22.374  c16.313,9.449,4.012,26.918,4.012,26.918s5.387-0.752,7.609-2.87c0.283-0.271,0.543-0.594,0.807-0.932  c-0.021,0.492-0.089,1.019-0.166,1.609c-0.519,3.986-4.316,7.669-4.316,7.669s7.27-0.154,10.003-5.477  C96.448,64.165,96.945,74.981,85,80.464"/><text x="0" y="115" fill="#000000" font-size="5px" font-weight="bold" font-family="'Helvetica Neue', Helvetica, Arial-Unicode, Arial, Sans-serif">Created by Luis Prado</text><text x="0" y="120" fill="#000000" font-size="5px" font-weight="bold" font-family="'Helvetica Neue', Helvetica, Arial-Unicode, Arial, Sans-serif">from the Noun Project</text></svg>