<svg xmlns="http://www.w3.org/2000/svg" xmlns:xlink="http://www.w3.org/1999/xlink" version="1.1" x="0px" y="0px" viewBox="0 0 50 62.5" enable-background="new 0 0 50 50" xml:space="preserve"><path d="M39.803,44.196l-6.147-7.543h-3.205c0.026,0.041,0.049,0.084,0.081,0.122l0.879,1.079H18.59l0.879-1.079  c0.031-0.038,0.055-0.081,0.081-0.122h-3.206l-6.146,7.543c-0.437,0.535-0.356,1.323,0.179,1.759  c0.232,0.189,0.511,0.281,0.789,0.281c0.363,0,0.723-0.157,0.97-0.461l1.662-2.039h22.406l1.661,2.039  c0.247,0.304,0.607,0.461,0.97,0.461c0.278,0,0.557-0.092,0.789-0.281C40.159,45.52,40.239,44.731,39.803,44.196z M15.02,42.236  l2.348-2.882h15.265l2.348,2.882H15.02z"/><path d="M14.703,35.334h20.595c2.055,0,3.722-1.666,3.722-3.722V20.221c-7.926-4.974-20.114-4.974-28.039,0v11.392  C10.981,33.668,12.648,35.334,14.703,35.334z M33,21.758h2.424c0.67,0,1.212,0.435,1.212,0.97c0,0.536-0.542,0.97-1.212,0.97H33  c-0.67,0-1.212-0.434-1.212-0.97C31.788,22.192,32.331,21.758,33,21.758z M25,18.633c1.755,0,3.179,1.424,3.179,3.179  c0,1.756-1.423,3.179-3.179,3.179c-1.756,0-3.179-1.423-3.179-3.179C21.822,20.057,23.245,18.633,25,18.633z M14.576,21.758H17  c0.669,0,1.212,0.435,1.212,0.97c0,0.536-0.543,0.97-1.212,0.97h-2.425c-0.67,0-1.212-0.434-1.212-0.97  C13.364,22.192,13.906,21.758,14.576,21.758z"/><path d="M37.176,17.774V6.996c0-1.784-1.447-3.232-3.232-3.232H16.057c-1.785,0-3.232,1.448-3.232,3.232v10.778  c3.586-1.664,7.803-2.577,12.176-2.577S33.59,16.11,37.176,17.774z M26.455,7.212h8.243v5.495h-8.243V7.212z M23.546,12.707h-8.243  V7.212h8.243V12.707z"/><text x="0" y="65" fill="#000000" font-size="5px" font-weight="bold" font-family="'Helvetica Neue', Helvetica, Arial-Unicode, Arial, Sans-serif">Created by AVAM</text><text x="0" y="70" fill="#000000" font-size="5px" font-weight="bold" font-family="'Helvetica Neue', Helvetica, Arial-Unicode, Arial, Sans-serif">from the Noun Project</text></svg>