<svg xmlns="http://www.w3.org/2000/svg" data-name="Layer 1" viewBox="0 0 100 125" x="0px" y="0px"><title>People</title><path d="M49.73,49.83c-15,0-27.19,12.69-27.19,28.35a29.59,29.59,0,0,0,.54,5.66H76.39a30.41,30.41,0,0,0,.54-5.66C76.93,62.52,64.75,49.83,49.73,49.83Z"/><circle cx="49.74" cy="31.71" r="15.55" transform="translate(-9.19 29.08) rotate(-29.97)"/><path d="M66.54,38.77A12.19,12.19,0,1,0,64.43,21a18.2,18.2,0,0,1,2.11,17.82Z"/><path d="M73.68,43.29a20.81,20.81,0,0,0-14.14,5.58c.63.23,1.25.47,1.86.74a29.91,29.91,0,0,1,9.49,6.7A30.75,30.75,0,0,1,78.54,70h16A23.68,23.68,0,0,0,95,65.54C95,53.27,85.45,43.29,73.68,43.29Z"/><path d="M38.07,49.63c.74-.33,1.48-.63,2.24-.89a20.79,20.79,0,0,0-14-5.45C14.55,43.29,5,53.27,5,65.54A23.68,23.68,0,0,0,5.43,70H20.92a30.85,30.85,0,0,1,7.65-13.7A30,30,0,0,1,38.07,49.63Z"/><path d="M26.32,41.08a12.14,12.14,0,0,0,6.74-2,18.2,18.2,0,0,1,2.23-18.42,12.19,12.19,0,1,0-9,20.45Z"/><text x="0" y="115" fill="#000000" font-size="5px" font-weight="bold" font-family="'Helvetica Neue', Helvetica, Arial-Unicode, Arial, Sans-serif">Created by Anhar Ismail</text><text x="0" y="120" fill="#000000" font-size="5px" font-weight="bold" font-family="'Helvetica Neue', Helvetica, Arial-Unicode, Arial, Sans-serif">from the Noun Project</text></svg>