<svg xmlns="http://www.w3.org/2000/svg" xmlns:xlink="http://www.w3.org/1999/xlink" version="1.1" x="0px" y="0px" viewBox="0 0 52 65" enable-background="new 0 0 52 52" xml:space="preserve"><g><path d="M39.1660652,33.8593178c-0.460022-1.2200317-1.1699829-2.2700195-1.7399902-3.0400391   c-1.7999878-2.4499512-3.0800171-5.5100098-3.9100342-7.9499512c-0.8299561-2.4500122-1.2099609-4.2800293-1.2099609-4.2800293   c-0.4700317-3.8499756-2.7800293-5.4799805-4.1199951-6.1199951c-0.289856-0.1351318-0.5992432-0.2352295-0.916626-0.3114624   c0.3766479-1.7515869,1.1629028-3.3604736,2.2781982-4.7164917c0.5469971,3.9249878,3.9335327,7.0239258,7.9683838,7.0979614   l1.0400391,0.0199585l-0.0200195-1.039978c-0.0735474-4.0066528-3.1305542-7.3803711-7.008728-7.9564819   c0.5107422-0.3771362,1.0441895-0.7279053,1.6224365-1.0169678l1.2988281-0.6499021   c0.4941406-0.2475586,0.6943359-0.8481445,0.4472656-1.3417969c-0.246582-0.4946289-0.8476563-0.6948243-1.3417969-0.4472656   L32.2552376,2.756779c-1.4232178,0.7114258-2.6798706,1.6669919-3.7342529,2.7997434l-0.2849121-0.2772217   c-3.1400146-3.0300291-8.25-3.0300291-11.3900146,0l-0.75,0.7199707l0.75,0.7200317   c1.5700073,1.5200195,3.6300049,2.2799683,5.6900024,2.2799683c1.5084839,0,3.0203857-0.4118652,4.3393555-1.2269287   c-0.7825317,1.3094482-1.333374,2.7562866-1.6228638,4.2897339c-0.5004272,0.0687866-0.9891968,0.2002563-1.4365234,0.4072266   c-1.3299561,0.6400146-3.6499634,2.2700195-4.1099854,6.039978c-0.0100098,0.0800171-1.5299683,7.4100342-5.1199951,12.3099976   c-0.5800171,0.7800293-1.289978,1.8200073-1.75,3.0400391c-1,2.6399536-2.4899902,9.289978,5.2200317,13.8800049   c0.1300049,0.0899658,3.2799683,2.1799927,7.8200073,2.2599487h0.25c4.539978-0.0799561,7.6899414-2.1699829,7.7799683-2.2299805   C41.6560555,43.1492958,40.1660652,36.4992714,39.1660652,33.8593178z"/></g><text x="0" y="67" fill="#000000" font-size="5px" font-weight="bold" font-family="'Helvetica Neue', Helvetica, Arial-Unicode, Arial, Sans-serif">Created by Dinosoft Labs</text><text x="0" y="72" fill="#000000" font-size="5px" font-weight="bold" font-family="'Helvetica Neue', Helvetica, Arial-Unicode, Arial, Sans-serif">from the Noun Project</text></svg>