<svg xmlns="http://www.w3.org/2000/svg" xmlns:xlink="http://www.w3.org/1999/xlink" version="1.1" x="0px" y="0px" viewBox="0 0 91 113.75" enable-background="new 0 0 91 91" xml:space="preserve"><g><path d="M66.97,66.186c4.154-1.986,7.038-6.217,7.038-11.119V21.638c0-6.799-5.532-12.33-12.329-12.33H48.097V4.713h5.976   c1.166,0,2.111-0.945,2.111-2.111c0-1.166-0.945-2.111-2.111-2.111H37.897c-1.166,0-2.111,0.945-2.111,2.111   c0,1.166,0.945,2.111,2.111,2.111h5.977v4.595H30.293c-6.8,0-12.332,5.531-12.332,12.33v33.428c0,4.529,2.462,8.484,6.111,10.628   L6.044,87.123c-0.75,0.892-0.636,2.224,0.257,2.974c0.396,0.333,0.877,0.496,1.357,0.496c0.601,0,1.199-0.256,1.616-0.752   l3.246-3.858c0.151,0.034,0.305,0.056,0.466,0.056h65.446c0.246,0,0.48-0.051,0.7-0.128l3.612,3.989   c0.417,0.459,0.989,0.693,1.565,0.693c0.506,0,1.013-0.181,1.417-0.546c0.863-0.782,0.93-2.117,0.147-2.982L66.97,66.186z    M59.839,56.085c-3.505,0-6.354-2.854-6.354-6.358c0-3.504,2.85-6.353,6.354-6.353c3.504,0,6.353,2.849,6.353,6.353   C66.191,53.231,63.343,56.085,59.839,56.085z M25.441,21.473c0-1.167,0.945-2.111,2.111-2.111h36.866   c1.166,0,2.111,0.944,2.111,2.111v6.705c0,5.631-4.582,10.212-10.212,10.212H35.653c-5.631,0-10.212-4.581-10.212-10.212V21.473z    M25.778,49.727c0-3.504,2.851-6.353,6.355-6.353c3.503,0,6.353,2.849,6.353,6.353c0,3.505-2.849,6.358-6.353,6.358   C28.629,56.085,25.778,53.231,25.778,49.727z M30.293,67.396h31.385c0.222,0,0.44-0.022,0.661-0.034l3.509,3.876H24.925   l3.101-3.685c0.091-0.107,0.167-0.222,0.232-0.34C28.922,67.324,29.599,67.396,30.293,67.396z M16.026,81.816l5.347-6.356h48.298   l5.755,6.356H16.026z"/></g><text x="0" y="106" fill="#000000" font-size="5px" font-weight="bold" font-family="'Helvetica Neue', Helvetica, Arial-Unicode, Arial, Sans-serif">Created by BomSymbols</text><text x="0" y="111" fill="#000000" font-size="5px" font-weight="bold" font-family="'Helvetica Neue', Helvetica, Arial-Unicode, Arial, Sans-serif">from the Noun Project</text></svg>