<svg xmlns="http://www.w3.org/2000/svg" xmlns:xlink="http://www.w3.org/1999/xlink" version="1.1" x="0px" y="0px" viewBox="0 0 100 125" enable-background="new 0 0 100 100" xml:space="preserve">
<path d="M40.124,59.296h-12.37c-2.219,0-4.021-1.799-4.021-4.021c0-2.218,1.802-4.018,4.021-4.018h12.37    c2.219,0,4.021,1.8,4.021,4.018C44.145,57.497,42.343,59.296,40.124,59.296L40.124,59.296z" fill="param(fill)" fill-opacity="param(fill-opacity)" stroke="param(outline)" stroke-opacity="param(outline-opacity)" stroke-width="param(outline-width)"/>
<path d="M40.124,69.18h-14.23c-2.221,0-4.02-1.801-4.02-4.024c0-2.216,1.799-4.018,4.02-4.018h14.23    c2.219,0,4.021,1.802,4.021,4.018C44.145,67.379,42.343,69.18,40.124,69.18L40.124,69.18z" fill="param(fill)" fill-opacity="param(fill-opacity)" stroke="param(outline)" stroke-opacity="param(outline-opacity)" stroke-width="param(outline-width)"/>
<path d="M40.124,79.06h-8.656c-2.221,0-4.021-1.798-4.021-4.021c0-2.219,1.801-4.02,4.021-4.02h8.656    c2.219,0,4.021,1.801,4.021,4.02C44.145,77.262,42.343,79.06,40.124,79.06L40.124,79.06z" fill="param(fill)" fill-opacity="param(fill-opacity)" stroke="param(outline)" stroke-opacity="param(outline-opacity)" stroke-width="param(outline-width)"/>
<path d="M67.173,50.378l-8.65-9.757c-0.414-0.467-0.933-0.828-1.514-1.057c-12.554-4.924-12.551-4.921-14.19-3.799L32.461,42.45    c-1.835,1.184-2.362,3.631-1.179,5.466c1.184,1.832,3.632,2.358,5.464,1.174l6.24-4.027c1.146,6.199,3.919,16.084,10.215,19.474    c7.806,4.202,12.676,2.194,12.676,2.194v2.244c0,0-5.087,1.014-9.739-0.598c-5.799-2.004-10.077-6.515-10.077-6.515v17.258h11.363    c0,0,3.324-0.214,5.804-1.575c2.217-1.219,3.508-3.921,3.508-3.921h20.913V50.378H67.173L67.173,50.378z" fill="param(fill)" fill-opacity="param(fill-opacity)" stroke="param(outline)" stroke-opacity="param(outline-opacity)" stroke-width="param(outline-width)"/>
<path d="M31.595,27.396v12.049l11.333-7.048v-5.11c5.452-2.16,9.286-7.263,9.286-13.215c0-5.955-3.832-11.055-9.286-13.216v14.789   H31.121V0.919c-5.365,2.196-9.126,7.255-9.126,13.151C21.994,20.136,25.978,25.308,31.595,27.396z" fill="param(fill)" fill-opacity="param(fill-opacity)" stroke="param(outline)" stroke-opacity="param(outline-opacity)" stroke-width="param(outline-width)"/>
<path d="M31.597,81.397v12.437c0,3.128,2.535,5.665,5.666,5.665c3.129,0,5.666-2.537,5.666-5.665V81.397H31.597z" fill="param(fill)" fill-opacity="param(fill-opacity)" stroke="param(outline)" stroke-opacity="param(outline-opacity)" stroke-width="param(outline-width)"/>
</svg>
