<svg xmlns="http://www.w3.org/2000/svg" xmlns:xlink="http://www.w3.org/1999/xlink" version="1.1" x="0px" y="0px" viewBox="0 0 30 37.5" style="enable-background:new 0 0 30 30;" xml:space="preserve">
<g><path fill="param(fill)" fill-opacity="param(fill-opacity)" stroke="param(outline)" stroke-opacity="param(outline-opacity)" stroke-width="param(outline-width)" d="M15,0C6.716,0,0,6.716,0,15c0,8.284,6.716,15,15,15c8.284,0,15-6.716,15-15C30,6.716,23.284,0,15,0z M15,4.091   c2.273,0,4.383,0.696,6.13,1.886L5.977,21.13C4.787,19.383,4.091,17.273,4.091,15C4.091,8.976,8.976,4.091,15,4.091z M15,25.909   c-2.273,0-4.383-0.696-6.13-1.886L24.023,8.87c1.19,1.747,1.886,3.856,1.886,6.13C25.909,21.024,21.024,25.909,15,25.909z"/></g></svg>