<?xml version="1.0" encoding="iso-8859-1"?>
<!-- Generator: Adobe Illustrator 19.0.0, SVG Export Plug-In . SVG Version: 6.00 Build 0)  -->
<svg xmlns="http://www.w3.org/2000/svg" xmlns:xlink="http://www.w3.org/1999/xlink" version="1.1" id="Layer_1" x="0px" y="0px" viewBox="0 0 511.999 511.999" style="enable-background:new 0 0 511.999 511.999;" xml:space="preserve">
<g>
	<g>
		<path style="fill:param(fill) #ffffff;fill-opacity:1;stroke:param(outline) #000000;stroke-width:param(stroke-width) 1.01988637;stroke-miterlimit:4;stroke-opacity:1;stroke-dasharray:none;" d="M291.503,45.612V0h-71.006v45.613c-45.21,13.099-80.175,50.555-89.678,97.166h250.362v-0.001    C371.678,96.167,336.713,58.711,291.503,45.612z"/>
	</g>
</g>
<g>
	<g>
		<path style="fill:param(fill) #ffffff;fill-opacity:1;stroke:param(outline) #000000;stroke-width:param(stroke-width) 1.01988637;stroke-miterlimit:4;stroke-opacity:1;stroke-dasharray:none;" d="M389.538,430.383h-5.786v-0.012h-20.27V224.058h30.417h30.409v-50.864H87.69v50.864h30.409h30.417v206.313h-20.27v0.012    h-5.786c-24.204,0-43.895,19.691-43.895,43.895v37.72h354.868v-37.72C433.433,450.075,413.742,430.383,389.538,430.383z     M214.936,408.243h-30.417V246.198h30.417V408.243z M271.208,408.243H240.79V246.198h30.417V408.243z M327.479,408.243h-30.417    V246.198h30.417V408.243z"/>
	</g>
</g>
<g>
	<g>
		<path style="fill:param(fill) #ffffff;fill-opacity:1;stroke:param(outline) #000000;stroke-width:param(stroke-width) 1.01988637;stroke-miterlimit:4;stroke-opacity:1;stroke-dasharray:none;" d="M118.099,266.575h-2.166c-28.19,0-51.949,19.334-58.714,45.437h-15.83v30.417H57.22    c6.766,26.103,30.524,45.437,58.714,45.437h2.166V266.575H118.099z"/>
	</g>
</g>
<g>
	<g>
		<path style="fill:param(fill) #ffffff;fill-opacity:1;stroke:param(outline) #000000;stroke-width:param(stroke-width) 1.01988637;stroke-miterlimit:4;stroke-opacity:1;stroke-dasharray:none;" d="M454.779,312.012c-6.766-26.103-30.524-45.437-58.714-45.437h-2.166v121.293h2.166c28.19,0,51.949-19.334,58.714-45.437    h15.831v-30.418H454.779z"/>
	</g>
</g>
<g>
</g>
<g>
</g>
<g>
</g>
<g>
</g>
<g>
</g>
<g>
</g>
<g>
</g>
<g>
</g>
<g>
</g>
<g>
</g>
<g>
</g>
<g>
</g>
<g>
</g>
<g>
</g>
<g>
</g>
</svg>
